<svg width="64" height="64" viewBox="0 0 64 64" fill="none" xmlns="http://www.w3.org/2000/svg">
  <rect width="64" height="64" rx="16" fill="#0F172A"/>
  <path d="M18 42V22H28.5C33.7467 22 37 25.0667 37 29.5C37 34.0333 33.66 37 28.5 37H24.6V42H18ZM24.6 31.7H28.16C29.9733 31.7 31.0133 30.6533 31.0133 29.5C31.0133 28.3067 29.9733 27.3 28.16 27.3H24.6V31.7Z" fill="#38BDF8"/>
  <path d="M38.5 42V22H46C49.8667 22 52 24.0667 52 27.2667C52 29.44 50.7867 30.9867 48.8 31.64C51.0133 32.2333 52.4 34 52.4 36.4267C52.4 39.9867 49.88 42 45.7333 42H38.5ZM44.96 30.44H46.72C48.0267 30.44 48.96 29.72 48.96 28.56C48.96 27.4 48.0267 26.64 46.72 26.64H44.96V30.44ZM44.96 37.36H47.2267C48.5867 37.36 49.4667 36.5867 49.4667 35.4133C49.4667 34.24 48.5867 33.4667 47.2267 33.4667H44.96V37.36Z" fill="#E2E8F0"/>
</svg>
